<svg preserveAspectRatio="none" width="100%" height="100%" overflow="visible" style="display: block;" viewBox="0 0 18.8408 19.6667" fill="none" xmlns="http://www.w3.org/2000/svg">
<g id="Sidebar Item">
<path id="Vector" d="M13.7908 0H4.9316C4.40637 0 3.98005 0.426344 3.98005 0.952022V3.0277C3.98005 3.55295 3.55373 3.97964 3.02953 3.97964H0.951553C0.426325 3.97964 0 4.40631 0 4.93156V13.7972C0 14.3227 0.426325 14.7501 0.951553 14.7501H3.5881C4.11332 14.7501 4.53964 14.3227 4.53964 13.7972V5.49587C4.53964 4.97028 4.96596 4.5436 5.49119 4.5436H13.7908C14.315 4.5436 14.7414 4.11691 14.7414 3.59166V0.952022C14.7414 0.426344 14.315 0 13.7908 0Z" fill="var(--fill-0, #6060D8)"/>
<path id="Vector_2" d="M5.05102 19.6667H13.9092C14.4344 19.6667 14.8608 19.24 14.8608 18.7147V16.6389C14.8608 16.1134 15.2871 15.686 15.8123 15.686H17.89C18.4145 15.686 18.8408 15.2603 18.8408 14.7347V5.86855C18.8408 5.34296 18.4145 4.91628 17.89 4.91628H15.2521C14.7268 4.91628 14.3005 5.34296 14.3005 5.86855V14.1709C14.3005 14.6965 13.8749 15.1231 13.3496 15.1231H5.05102C4.52477 15.1231 4.09845 15.5495 4.09845 16.0751V18.7147C4.09845 19.24 4.52477 19.6667 5.05102 19.6667Z" fill="var(--fill-0, #6060D8)"/>
</g>
</svg>
