<svg preserveAspectRatio="none" width="100%" height="100%" overflow="visible" style="display: block;" viewBox="0 0 21.7149 22.6667" fill="none" xmlns="http://www.w3.org/2000/svg">
<g id="Sidebar Item">
<path id="Vector" d="M15.8945 0H5.68388C5.07853 0 4.58718 0.49138 4.58718 1.09725V3.48955C4.58718 4.09492 4.09583 4.5867 3.49166 4.5867H1.09671C0.491357 4.5867 0 5.07846 0 5.68384V15.9018C0 16.5076 0.491357 17.0001 1.09671 17.0001H4.13543C4.74078 17.0001 5.23213 16.5076 5.23213 15.9018V6.33423C5.23213 5.72846 5.72348 5.23669 6.32883 5.23669H15.8945C16.4987 5.23669 16.99 4.74492 16.99 4.13954V1.09725C16.99 0.49138 16.4987 0 15.8945 0Z" fill="var(--fill-0, #6060D8)"/>
<path id="Vector_2" d="M5.82161 22.6667H16.0311C16.6364 22.6667 17.1278 22.1749 17.1278 21.5696V19.1771C17.1278 18.5714 17.6191 18.0788 18.2245 18.0788H20.619C21.2236 18.0788 21.7149 17.5882 21.7149 16.9825V6.76381C21.7149 6.15804 21.2236 5.66628 20.619 5.66628H17.5788C16.9734 5.66628 16.482 6.15804 16.482 6.76381V16.3326C16.482 16.9383 15.9915 17.4301 15.3861 17.4301H5.82161C5.21508 17.4301 4.72373 17.9215 4.72373 18.5273V21.5696C4.72373 22.1749 5.21508 22.6667 5.82161 22.6667Z" fill="var(--fill-0, #6060D8)"/>
</g>
</svg>
