<svg preserveAspectRatio="none" width="100%" height="100%" overflow="visible" style="display: block;" viewBox="0 0 77.9494 13.41" fill="none" xmlns="http://www.w3.org/2000/svg">
<g id="Financial Statements Text">
<path d="M1.89 6.705C1.89 9.7965 3.4605 11.655 6.0705 11.655C8.181 11.655 9.5265 10.4445 9.963 8.145H11.853C11.3175 11.43 9.144 13.41 6.066 13.41C2.4615 13.41 0 10.692 0 6.705C0 2.7135 2.4615 0 6.066 0C9.144 0 11.3175 1.98 11.853 5.265H9.963C9.5265 2.9655 8.181 1.755 6.0705 1.755C3.4605 1.755 1.89 3.6135 1.89 6.705Z" fill="var(--fill-0, #1F1F1F)"/>
<path d="M13.0134 8.1765C13.0134 5.04 14.9574 2.9475 17.8644 2.9475C20.7714 2.9475 22.7154 5.04 22.7154 8.1765C22.7154 11.313 20.7714 13.41 17.8644 13.41C14.9574 13.41 13.0134 11.313 13.0134 8.1765ZM14.8359 8.1765C14.8359 10.395 15.9924 11.763 17.8689 11.763C19.7409 11.763 20.8929 10.395 20.8929 8.1765C20.8929 5.958 19.7409 4.5945 17.8689 4.5945C15.9924 4.5945 14.8359 5.9625 14.8359 8.1765Z" fill="var(--fill-0, #1F1F1F)"/>
<path d="M31.1754 8.586V3.2175H32.9979V13.14H31.1754V10.278C30.6939 12.2265 29.3439 13.41 27.4944 13.41C25.2309 13.41 23.8809 11.646 23.8809 8.766V3.2175H25.7034V8.766C25.7034 10.755 26.5494 11.763 28.2504 11.763C30.0819 11.763 31.1754 10.593 31.1754 8.586Z" fill="var(--fill-0, #1F1F1F)"/>
<path d="M36.2602 8.2215V13.14H34.4377V3.2175H36.2602V6.381C36.7192 4.4055 38.0062 3.2175 40.1032 3.2175H40.5532V4.9545H40.1077C37.2052 4.9545 36.2602 6.0165 36.2602 8.2215Z" fill="var(--fill-0, #1F1F1F)"/>
<path d="M45.6415 2.9475C48.346 2.9475 49.8805 4.2165 49.8805 6.219H48.103C48.103 5.202 47.23 4.5225 45.6415 4.5225C44.206 4.5225 43.225 5.076 43.225 5.904C43.225 6.8445 44.485 7.038 45.592 7.2135L46.2535 7.317C47.914 7.578 50.245 7.947 50.245 10.35C50.245 12.3075 48.697 13.41 45.808 13.41C42.7975 13.41 41.272 12.213 41.272 10.0575H43.0495C43.0495 11.2005 43.9315 11.835 45.8035 11.835C47.491 11.835 48.472 11.322 48.472 10.395C48.472 9.3105 47.1355 9.072 45.853 8.8515L45.1915 8.739C43.684 8.4825 41.4475 8.109 41.4475 5.9445C41.4475 4.1175 43.0405 2.9475 45.6415 2.9475Z" fill="var(--fill-0, #1F1F1F)"/>
<path d="M58.7147 9.8505H60.5327C60.0197 12.0735 58.3052 13.41 55.9787 13.41C53.0627 13.41 51.1052 11.304 51.1052 8.163C51.1052 5.04 53.0402 2.9475 55.9247 2.9475C58.7642 2.9475 60.5822 4.9725 60.5822 8.136C60.5822 8.3655 60.5687 8.577 60.5507 8.8425H52.9637C53.1752 10.6605 54.3092 11.763 56.0237 11.763C57.3422 11.763 58.2287 11.115 58.7147 9.8505ZM52.9997 7.2675H58.6967C58.4537 5.544 57.4817 4.5945 55.9337 4.5945C54.3452 4.5945 53.2742 5.598 52.9997 7.2675Z" fill="var(--fill-0, #1F1F1F)"/>
<path d="M63.6117 8.2215V13.14H61.7892V3.2175H63.6117V6.381C64.0707 4.4055 65.3577 3.2175 67.4547 3.2175H67.9047V4.9545H67.4592C64.5567 4.9545 63.6117 6.0165 63.6117 8.2215Z" fill="var(--fill-0, #1F1F1F)"/>
<path d="M68.7199 6.6735C68.7199 4.392 70.4614 2.9475 73.2379 2.9475C76.1764 2.9475 77.9494 4.5585 77.9494 7.254V13.14H76.1269V10.4715C75.6454 12.2985 74.1334 13.41 72.0409 13.41C69.8719 13.41 68.4274 12.213 68.4274 10.4175C68.4274 8.604 69.9034 7.4835 72.2974 7.4835H76.1269V7.254C76.1269 5.6205 75.0019 4.599 73.2064 4.599C71.3749 4.599 70.5424 5.4225 70.5424 6.6735H68.7199ZM76.1269 9.0135H72.2794C70.9384 9.0135 70.2274 9.4815 70.2274 10.3545C70.2274 11.2995 71.0464 11.8215 72.5314 11.8215C74.6374 11.8215 76.1269 10.7685 76.1269 9.288V9.0135Z" fill="var(--fill-0, #1F1F1F)"/>
</g>
</svg>
